<?xml version="1.0" standalone="no"?><!DOCTYPE svg PUBLIC "-//W3C//DTD SVG 1.1//EN" "http://www.w3.org/Graphics/SVG/1.1/DTD/svg11.dtd"><svg t="1592896158392" class="icon" viewBox="0 0 1024 1024" version="1.1" xmlns="http://www.w3.org/2000/svg" p-id="14784" width="36" height="36" xmlns:xlink="http://www.w3.org/1999/xlink"><defs><style type="text/css"></style></defs><path d="M696.369474 952.552727c-37.598384 13.769697-73.606465 24.358788-108.567273 31.767273 11.649293-3.180606 23.298586-7.408485 35.490909-11.649293 126.034747-46.610101 145.635556-278.031515 105.916768-351.120808 0 0-6.878384 46.597172-20.11798 86.328889-6.891313 26.479192-46.610101 20.11798-52.958384 0-20.130909-59.849697-66.19798-172.114747-158.875151-264.791919 0 0 6.878384 238.312727-59.836768 278.031515-66.728081 39.718788-119.156364-73.076364-119.156363-73.076364s-65.137778 126.047677 7.421414 245.204041c37.068283 60.379798 80.497778 91.61697 131.335757 102.20606-109.640404-7.421414-203.907879-61.957172-283.345454-181.643636-132.39596-198.593939-13.239596-423.667071-13.239596-423.667071s92.677172 198.593939 205.485252 126.034748c112.808081-72.546263 105.916768-489.865051 105.916768-489.865051 165.236364 151.983838 244.673939 350.590707 284.392727 456.494546 13.239596 46.610101 73.076364 46.610101 92.677172 6.878383 26.479192-66.19798 33.357576-152.513939 33.357576-152.513939 65.654949 132.408889 32.827475 535.945051-185.897374 615.382626z m0 0" fill="#CC2F30" p-id="14785"></path><path d="M587.802201 984.332929c-47.657374 14.299798-91.61697 19.070707-131.335757 11.119192 41.839192 2.650505 85.268687-1.060202 131.335757-11.119192z m0 0" fill="#FFFFFF" p-id="14786"></path></svg>
